<?xml version="1.0" encoding="UTF-8"?>
<svg xmlns="http://www.w3.org/2000/svg" xmlns:xlink="http://www.w3.org/1999/xlink" viewBox="0 0 100 100" width="100px" height="100px">
<g id="surface184339797">
<path style=" stroke:none;fill-rule:nonzero;fill:rgb(100%,100%,100%);fill-opacity:1;" d="M 66.75 0 C 61.078125 0.382812 55.007812 3.757812 51.25 8.3125 C 47.960938 12.320312 45.203125 18.203125 46.25 24.3125 C 45.3125 24.023438 44.460938 23.992188 43.4375 23.625 C 40.648438 22.632812 37.460938 21.5625 33.5 21.5625 C 25.632812 21.5625 17.578125 26.242188 12.5 34.0625 C 5.109375 45.421875 6.59375 65.414062 17.8125 82.5 C 19.789062 85.5 22.09375 88.773438 24.9375 91.375 C 27.78125 93.976562 31.21875 95.960938 35.25 96 C 38.695312 96.039062 41.09375 94.890625 43.25 93.9375 C 45.40625 92.984375 47.414062 92.140625 51.1875 92.125 C 51.210938 92.125 51.226562 92.125 51.25 92.125 C 55.007812 92.09375 56.953125 92.921875 59.0625 93.875 C 61.171875 94.828125 63.546875 96.03125 67 96 C 71.109375 95.96875 74.601562 93.71875 77.5 90.9375 C 80.398438 88.15625 82.78125 84.742188 84.75 81.75 C 87.570312 77.453125 88.703125 75.109375 90.875 70.3125 C 91.101562 69.8125 91.109375 69.234375 90.890625 68.726562 C 90.679688 68.21875 90.265625 67.820312 89.75 67.625 C 82.640625 64.9375 78.585938 58.648438 78 52 C 77.414062 45.351562 80.226562 38.507812 87.3125 34.625 C 87.835938 34.34375 88.203125 33.851562 88.328125 33.273438 C 88.445312 32.695312 88.304688 32.085938 87.9375 31.625 C 82.851562 25.304688 75.695312 21.5625 68.6875 21.5625 C 64.21875 21.5625 60.9375 22.617188 58.25 23.625 C 57.804688 23.796875 57.476562 23.78125 57.0625 23.9375 C 59.789062 22.5 62.195312 20.507812 64 18.1875 C 67.28125 13.976562 69.8125 7.984375 68.875 1.6875 C 68.71875 0.65625 67.789062 -0.078125 66.75 0 Z M 64.625 4.75 C 64.492188 8.789062 63.109375 12.742188 60.8125 15.6875 C 58.40625 18.78125 54.359375 20.921875 50.4375 21.5625 C 50.507812 17.679688 52.039062 13.65625 54.375 10.8125 C 56.828125 7.84375 60.890625 5.703125 64.625 4.75 Z M 33.5 25.5625 C 36.726562 25.5625 39.3125 26.398438 42.0625 27.375 C 44.8125 28.351562 47.710938 29.5 51.125 29.5 C 54.460938 29.5 57.101562 28.34375 59.6875 27.375 C 62.273438 26.40625 64.851562 25.5625 68.6875 25.5625 C 73.695312 25.5625 79.109375 28.164062 83.375 32.6875 C 76.546875 37.507812 73.351562 45.023438 74 52.3125 C 74.648438 59.679688 79.085938 66.671875 86.375 70.3125 C 84.796875 73.75 83.757812 76.023438 81.4375 79.5625 C 79.523438 82.476562 77.25 85.664062 74.75 88.0625 C 72.25 90.460938 69.601562 91.976562 66.9375 92 C 64.367188 92.023438 62.90625 91.257812 60.6875 90.25 C 58.46875 89.242188 55.601562 88.085938 51.1875 88.125 C 46.78125 88.148438 43.875 89.257812 41.625 90.25 C 39.375 91.242188 37.898438 92.023438 35.3125 92 C 32.578125 91.976562 30.039062 90.648438 27.625 88.4375 C 25.210938 86.226562 23.03125 83.210938 21.125 80.3125 C 10.625 64.3125 9.78125 45.515625 15.8125 36.25 C 20.234375 29.445312 27.257812 25.5625 33.5 25.5625 Z M 33.5 25.5625 "/>
</g>
</svg>
