<svg width="32" height="32" viewBox="0 0 32 32" fill="none" xmlns="http://www.w3.org/2000/svg">
<path fill-rule="evenodd" clip-rule="evenodd" d="M4.89846 21.4062C5.07427 21.2304 5.27434 20.88 5.35752 20.0556C5.47307 18.9106 6.40969 17.8411 7.74603 17.8411C9.08238 17.8411 10.019 18.9106 10.1345 20.0556C10.2177 20.88 10.4178 21.2304 10.5936 21.4062C10.7694 21.582 11.1198 21.7821 11.9442 21.8653C13.0892 21.9808 14.1587 22.9174 14.1587 24.2538C14.1587 25.5901 13.0892 26.5267 11.9442 26.6423C11.1198 26.7255 10.7694 26.9255 10.5936 27.1013C10.4178 27.2771 10.2177 27.6275 10.1345 28.4519C10.019 29.597 9.08238 30.6665 7.74603 30.6665C6.40968 30.6665 5.47307 29.597 5.35752 28.4519C5.27433 27.6275 5.07427 27.2771 4.89846 27.1013C4.72266 26.9255 4.37228 26.7255 3.54789 26.6423C2.40283 26.5267 1.33333 25.5901 1.33333 24.2538C1.33333 22.9174 2.40283 21.9808 3.54789 21.8653C4.37228 21.7821 4.72266 21.582 4.89846 21.4062ZM3.68175 23.1918C3.12354 23.2482 2.66667 23.6927 2.66667 24.2538C2.66667 24.8148 3.12353 25.2593 3.68175 25.3157C5.63434 25.5127 6.48709 26.3654 6.68412 28.318C6.74045 28.8763 7.18498 29.3331 7.74603 29.3331C8.30708 29.3331 8.75162 28.8763 8.80794 28.318C9.00498 26.3654 9.85772 25.5127 11.8103 25.3157C12.3685 25.2593 12.8254 24.8148 12.8254 24.2538C12.8254 23.6927 12.3685 23.2482 11.8103 23.1918C9.85772 22.9948 9.00498 22.1421 8.80795 20.1895C8.75162 19.6313 8.30708 19.1744 7.74603 19.1744C7.18498 19.1744 6.74045 19.6313 6.68412 20.1895C6.48709 22.1421 5.63434 22.9948 3.68175 23.1918Z" fill="white"/>
<path fill-rule="evenodd" clip-rule="evenodd" d="M14.9498 4.82364H14.9498C14.9498 3.72415 15.35 2.7896 16.1063 2.15374C16.8261 1.54861 17.7255 1.33325 18.5397 1.33325C19.3539 1.33325 20.2533 1.54861 20.9731 2.15374C21.7294 2.7896 22.1296 3.72415 22.1296 4.82364C22.1296 6.17174 22.1881 7.14382 22.3323 7.86246C22.4737 8.56691 22.6757 8.91396 22.8808 9.1191C23.086 9.32423 23.433 9.52625 24.1375 9.66762C24.8561 9.81183 25.8282 9.87034 27.1763 9.87034C28.2432 9.87034 29.1846 10.2291 29.8361 10.9859C30.4587 11.7091 30.6667 12.6229 30.6667 13.4602C30.6667 14.2976 30.4587 15.2114 29.8361 15.9346C29.1846 16.6914 28.2432 17.0501 27.1763 17.0501C25.8282 17.0501 24.8561 17.1086 24.1375 17.2529C23.433 17.3942 23.086 17.5962 22.8808 17.8014C22.6757 18.0065 22.4737 18.3536 22.3323 19.058C22.1881 19.7767 22.1296 20.7487 22.1296 22.0968C22.1296 23.1963 21.7294 24.1309 20.9731 24.7667C20.2533 25.3719 19.3539 25.5872 18.5397 25.5872C17.7255 25.5872 16.8261 25.3719 16.1063 24.7667C15.35 24.1309 14.9498 23.1963 14.9498 22.0968C14.9498 20.7487 14.8913 19.7767 14.7471 19.058C14.6057 18.3536 14.4037 18.0065 14.1985 17.8014C13.9934 17.5962 13.6464 17.3942 12.9419 17.2529C12.2233 17.1086 11.2512 17.0501 9.90309 17.0501C8.8036 17.0501 7.86905 16.65 7.23319 15.8936C6.62806 15.1739 6.4127 14.2744 6.4127 13.4602C6.4127 12.6461 6.62806 11.7466 7.23319 11.0268C7.86905 10.2705 8.8036 9.87034 9.90309 9.87034C11.251 9.87034 12.2257 9.81186 12.9475 9.66745C13.6559 9.52575 14.0066 9.32299 14.2136 9.11688C14.4195 8.91194 14.6217 8.5661 14.7611 7.86483C14.9034 7.14868 14.9583 6.17844 14.9498 4.83202L14.9498 4.82364ZM9.90309 11.2037C8.38095 11.2037 7.74603 12.268 7.74603 13.4602C7.74603 14.6525 8.38095 15.7168 9.90309 15.7168C15.3651 15.7168 16.2831 16.6348 16.2831 22.0968C16.2831 23.619 17.3474 24.2539 18.5397 24.2539C19.7319 24.2539 20.7962 23.619 20.7962 22.0968C20.7962 16.6348 21.7143 15.7168 27.1763 15.7168C28.6984 15.7168 29.3333 14.7301 29.3333 13.4602C29.3333 12.1904 28.6984 11.2037 27.1763 11.2037C21.7143 11.2037 20.7962 10.2856 20.7962 4.82364C20.7962 3.30151 19.7319 2.66659 18.5397 2.66659C17.3475 2.66659 16.2831 3.30151 16.2831 4.82364C16.3175 10.2856 15.3651 11.2037 9.90309 11.2037Z" fill="white"/>
</svg>
