<svg width="32" height="32" viewBox="0 0 32 32" fill="none" xmlns="http://www.w3.org/2000/svg">
<path fill-rule="evenodd" clip-rule="evenodd" d="M1.45717 3.43891C1.67565 2.96803 2.14756 2.66675 2.66666 2.66675H29.3333C29.8524 2.66675 30.3243 2.96803 30.5428 3.43891C30.7613 3.9098 30.6866 4.46468 30.3514 4.86105L20 17.1016V28.0001C20 28.4622 19.7607 28.8913 19.3676 29.1343C18.9746 29.3772 18.4837 29.3993 18.0704 29.1926L12.737 26.526C12.2853 26.3001 12 25.8384 12 25.3334V17.1016L1.64857 4.86105C1.31337 4.46468 1.2387 3.9098 1.45717 3.43891ZM5.5404 5.33341L14.3514 15.7524C14.555 15.9931 14.6667 16.2982 14.6667 16.6134V24.5094L17.3333 25.8427V16.6134C17.3333 16.2982 17.445 15.9931 17.6486 15.7524L26.4596 5.33341H5.5404Z" fill="white"/>
</svg>
