<svg width="32" height="32" viewBox="0 0 32 32" fill="none" xmlns="http://www.w3.org/2000/svg">
<path fill-rule="evenodd" clip-rule="evenodd" d="M2.06193 3.71933C2.17117 3.48389 2.40713 3.33325 2.66668 3.33325H29.3333C29.5929 3.33325 29.8288 3.48389 29.9381 3.71933C30.0473 3.95478 30.01 4.23222 29.8424 4.4304L19.3333 16.8573V27.9999C19.3333 28.231 19.2137 28.4455 19.0172 28.567C18.8206 28.6885 18.5752 28.6995 18.3685 28.5962L13.0352 25.9295C12.8093 25.8166 12.6667 25.5858 12.6667 25.3333V16.8573L2.15763 4.4304C1.99003 4.23222 1.95269 3.95478 2.06193 3.71933ZM4.10354 4.66659L13.8424 16.1828C13.9442 16.3031 14 16.4556 14 16.6133V24.9212L18 26.9212V16.6133C18 16.4556 18.0559 16.3031 18.1576 16.1828L27.8965 4.66659H4.10354Z" fill="white"/>
</svg>
