<svg width="32" height="32" viewBox="0 0 32 32" fill="none" xmlns="http://www.w3.org/2000/svg">
<path fill-rule="evenodd" clip-rule="evenodd" d="M14.4867 3.4228C8.42117 4.14493 3.67104 9.15321 3.35058 15.3333H10.0239C10.2491 10.9911 11.8122 6.8321 14.4867 3.4228ZM17.5133 3.4228C20.1878 6.8321 21.7509 10.9911 21.9761 15.3333H28.6494C28.329 9.15321 23.5788 4.14493 17.5133 3.4228ZM20.6409 15.3333C20.4034 11.0459 18.7735 6.9527 16 3.6761C13.2265 6.9527 11.5966 11.0459 11.3591 15.3333H20.6409ZM11.3591 16.6667H20.6409C20.4035 20.9541 18.7735 25.0474 16 28.324C13.2265 25.0474 11.5965 20.9541 11.3591 16.6667ZM10.0239 16.6667H3.35058C3.67103 22.8468 8.42111 27.855 14.4866 28.5772C11.8121 25.1679 10.249 21.0089 10.0239 16.6667ZM17.5134 28.5772C20.1879 25.1679 21.751 21.0089 21.9761 16.6667H28.6494C28.329 22.8468 23.5789 27.855 17.5134 28.5772ZM16.0098 30C23.7373 29.9947 30 23.7287 30 16C30 8.26801 23.732 2 16 2C8.26801 2 2 8.26801 2 16C2 23.7287 8.26271 29.9947 15.9902 30C15.9935 30 15.9967 30.0001 16 30.0001C16.0033 30.0001 16.0065 30 16.0098 30Z" fill="white"/>
</svg>
