<svg width="24" height="24" viewBox="0 0 24 24" fill="none" xmlns="http://www.w3.org/2000/svg">
<path fill-rule="evenodd" clip-rule="evenodd" d="M14.6532 2.95516C15.3814 2.65346 16.1618 2.49817 16.95 2.49817C17.7382 2.49817 18.5186 2.65346 19.2467 2.95516C19.9748 3.25684 20.6363 3.69899 21.1935 4.25636C21.7508 4.81351 22.1932 5.47518 22.4948 6.20324C22.7965 6.93138 22.9518 7.71183 22.9518 8.49999C22.9518 9.28816 22.7965 10.0686 22.4948 10.7967C22.1931 11.5248 21.751 12.1864 21.1936 12.7435C21.1935 12.7436 21.1936 12.7435 21.1936 12.7435L12.3536 21.5835C12.1583 21.7788 11.8417 21.7788 11.6464 21.5835L2.80644 12.7435C1.68098 11.6181 1.04871 10.0916 1.04871 8.49999C1.04871 6.90835 1.68098 5.3819 2.80644 4.25644C3.9319 3.13098 5.45836 2.4987 7.05 2.4987C8.64164 2.4987 10.1681 3.13098 11.2936 4.25644L12 4.96289L12.7064 4.25652C12.7064 4.2565 12.7063 4.25655 12.7064 4.25652C13.2635 3.69911 13.9251 3.25685 14.6532 2.95516ZM16.95 3.49817C16.2932 3.49817 15.6428 3.62758 15.036 3.879C14.4293 4.13042 13.878 4.49892 13.4136 4.96347L12.3536 6.02355C12.1583 6.21881 11.8417 6.21881 11.6464 6.02355L10.5864 4.96355C9.64852 4.02562 8.37642 3.4987 7.05 3.4987C5.72357 3.4987 4.45147 4.02562 3.51355 4.96355C2.57563 5.90147 2.04871 7.17357 2.04871 8.49999C2.04871 9.82642 2.57563 11.0985 3.51355 12.0364L12 20.5229L20.4864 12.0364C20.951 11.5721 21.3196 11.0207 21.571 10.414C21.8224 9.80717 21.9518 9.1568 21.9518 8.49999C21.9518 7.84319 21.8224 7.19282 21.571 6.58604C21.3196 5.97925 20.9511 5.42795 20.4865 4.96363C20.0222 4.49909 19.4707 4.13042 18.864 3.879C18.2572 3.62758 17.6068 3.49817 16.95 3.49817Z" fill="white"/>
</svg>
