<svg width="32" height="32" viewBox="0 0 32 32" fill="none" xmlns="http://www.w3.org/2000/svg">
<path fill-rule="evenodd" clip-rule="evenodd" d="M5.33334 14.6667C5.33334 9.51209 9.51201 5.33341 14.6667 5.33341C19.8213 5.33341 24 9.51209 24 14.6667C24 17.1811 23.0058 19.4632 21.389 21.1414C21.3432 21.1766 21.2991 21.2152 21.2572 21.2571C21.2152 21.2991 21.1766 21.3432 21.1414 21.389C19.4632 23.0058 17.1811 24.0001 14.6667 24.0001C9.51201 24.0001 5.33334 19.8214 5.33334 14.6667ZM22.157 24.0426C20.1041 25.6848 17.5001 26.6667 14.6667 26.6667C8.03926 26.6667 2.66667 21.2942 2.66667 14.6667C2.66667 8.03933 8.03926 2.66675 14.6667 2.66675C21.2941 2.66675 26.6667 8.03933 26.6667 14.6667C26.6667 17.5001 25.6847 20.104 24.0426 22.1569L28.9428 27.0571C29.4635 27.5778 29.4635 28.4221 28.9428 28.9428C28.4221 29.4635 27.5779 29.4635 27.0572 28.9428L22.157 24.0426Z" fill="white"/>
</svg>
