<svg width="32" height="32" viewBox="0 0 32 32" fill="none" xmlns="http://www.w3.org/2000/svg">
<path fill-rule="evenodd" clip-rule="evenodd" d="M4.66668 14.6666C4.66668 9.14374 9.14383 4.66659 14.6667 4.66659C20.1895 4.66659 24.6667 9.14374 24.6667 14.6666C24.6667 17.3821 23.5843 19.8447 21.8275 21.6467C21.7926 21.6703 21.7595 21.6975 21.7286 21.7284C21.6977 21.7593 21.6705 21.7924 21.647 21.8273C19.8449 23.5842 17.3822 24.6666 14.6667 24.6666C9.14383 24.6666 4.66668 20.1894 4.66668 14.6666ZM22.1954 23.138C20.1936 24.9184 17.5564 25.9999 14.6667 25.9999C8.40745 25.9999 3.33334 20.9258 3.33334 14.6666C3.33334 8.40736 8.40745 3.33325 14.6667 3.33325C20.9259 3.33325 26 8.40736 26 14.6666C26 17.5563 24.9185 20.1934 23.1382 22.1952L28.4714 27.5284C28.7318 27.7887 28.7318 28.2108 28.4714 28.4712C28.2111 28.7315 27.7889 28.7315 27.5286 28.4712L22.1954 23.138Z" fill="white"/>
</svg>
