<svg width="32" height="32" viewBox="0 0 32 32" fill="none" xmlns="http://www.w3.org/2000/svg">
<path fill-rule="evenodd" clip-rule="evenodd" d="M5.33329 14.6667C5.33329 9.51209 9.51197 5.33341 14.6666 5.33341C19.8213 5.33341 24 9.51209 24 14.6667C24 17.1811 23.0057 19.4632 21.389 21.1414C21.3432 21.1766 21.2991 21.2152 21.2571 21.2571C21.2152 21.2991 21.1766 21.3432 21.1414 21.389C19.4632 23.0058 17.181 24.0001 14.6666 24.0001C9.51197 24.0001 5.33329 19.8214 5.33329 14.6667ZM22.1569 24.0426C20.104 25.6848 17.5 26.6667 14.6666 26.6667C8.03921 26.6667 2.66663 21.2942 2.66663 14.6667C2.66663 8.03933 8.03921 2.66675 14.6666 2.66675C21.294 2.66675 26.6666 8.03933 26.6666 14.6667C26.6666 17.5001 25.6847 20.104 24.0425 22.1569L28.9428 27.0571C29.4635 27.5778 29.4635 28.4221 28.9428 28.9428C28.4221 29.4635 27.5778 29.4635 27.0571 28.9428L22.1569 24.0426Z" fill="white"/>
</svg>
