<svg width="32" height="32" viewBox="0 0 32 32" fill="none" xmlns="http://www.w3.org/2000/svg">
<path fill-rule="evenodd" clip-rule="evenodd" d="M14.5858 2.58587C14.9609 2.2108 15.4696 2.00008 16 2.00008C16.5304 2.00008 17.0391 2.2108 17.4142 2.58587C17.7893 2.96094 18 3.46965 18 4.00008V4.12008L18 4.12274C18.0022 4.6818 18.1679 5.22801 18.4766 5.69414C18.7846 6.15928 19.2217 6.5244 19.7341 6.74478C20.2573 6.97488 20.8373 7.04337 21.3997 6.94139C21.9633 6.8392 22.4834 6.57055 22.8929 6.17002L22.9783 6.08456C23.1641 5.8986 23.3847 5.75109 23.6275 5.65044C23.8702 5.54979 24.1305 5.49798 24.3933 5.49798C24.6562 5.49798 24.9164 5.54979 25.1592 5.65044C25.402 5.75109 25.6231 5.89913 25.8089 6.08508C25.9948 6.27083 26.1423 6.49141 26.243 6.7342C26.3436 6.977 26.3954 7.23725 26.3954 7.50008C26.3954 7.76291 26.3436 8.02317 26.243 8.26596C26.1423 8.50876 25.9945 8.7296 25.8086 8.91535L25.7286 8.99532L25.7234 9.00057C25.3229 9.41004 25.0542 9.93009 24.952 10.4937C24.8587 11.0086 24.9082 11.5383 25.0938 12.0256C25.097 12.1072 25.115 12.1876 25.1472 12.2627C25.3675 12.7766 25.7332 13.2148 26.1993 13.5235C26.6654 13.8322 27.2116 13.9978 27.7707 14.0001L27.7733 14.0001H28C28.5304 14.0001 29.0391 14.2108 29.4142 14.5859C29.7893 14.9609 30 15.4696 30 16.0001C30 16.5305 29.7893 17.0392 29.4142 17.4143C29.0391 17.7894 28.5304 18.0001 28 18.0001L27.88 18.0001L27.8773 18.0001C27.3183 18.0023 26.7721 18.168 26.3059 18.4767C25.8408 18.7847 25.4757 19.2217 25.2553 19.7342C25.0252 20.2573 24.9567 20.8374 25.0587 21.3998C25.1609 21.9634 25.4295 22.4835 25.8301 22.893L25.9155 22.9784C26.1015 23.1642 26.249 23.3847 26.3496 23.6275C26.4503 23.8703 26.5021 24.1306 26.5021 24.3934C26.5021 24.6562 26.4503 24.9165 26.3496 25.1593C26.249 25.4021 26.101 25.6232 25.915 25.8089C25.7293 25.9949 25.5087 26.1424 25.2659 26.2431C25.0231 26.3437 24.7628 26.3955 24.5 26.3955C24.2372 26.3955 23.9769 26.3437 23.7341 26.2431C23.4913 26.1424 23.2705 25.9946 23.0847 25.8087L23.0048 25.7286L22.9995 25.7235C22.59 25.323 22.07 25.0543 21.5064 24.9521C20.944 24.8501 20.3639 24.9186 19.8408 25.1487C19.3283 25.3691 18.8913 25.7342 18.5832 26.1994C18.2746 26.6655 18.1089 27.2117 18.1067 27.7708L18.1067 27.7734V28.0001C18.1067 28.5305 17.896 29.0392 17.5209 29.4143C17.1458 29.7894 16.6371 30.0001 16.1067 30.0001C15.5762 30.0001 15.0675 29.7894 14.6925 29.4143C14.3174 29.0392 14.1067 28.5305 14.1067 28.0001L14.1068 27.8801L14.1065 27.8645C14.093 27.2894 13.9069 26.7317 13.5723 26.2639C13.2417 25.8017 12.7814 25.4483 12.2499 25.2484C11.7309 25.0239 11.157 24.9578 10.6003 25.0588C10.0367 25.161 9.51659 25.4296 9.10713 25.8301L9.02166 25.9156C8.83592 26.1016 8.61534 26.2491 8.37255 26.3497C8.12975 26.4504 7.86949 26.5022 7.60666 26.5022C7.34383 26.5022 7.08358 26.4504 6.84078 26.3497C6.59799 26.2491 6.37688 26.101 6.19114 25.9151C6.00519 25.7293 5.85767 25.5088 5.75702 25.266C5.65637 25.0232 5.60457 24.7629 5.60457 24.5001C5.60457 24.2373 5.65637 23.977 5.75702 23.7342C5.85767 23.4914 6.00545 23.2706 6.1914 23.0848L6.27143 23.0049L6.27657 22.9996C6.6771 22.5901 6.94578 22.0701 7.04797 21.5065C7.14995 20.9441 7.08147 20.364 6.85137 19.8409C6.63098 19.3284 6.26586 18.8914 5.80072 18.5833C5.3346 18.2746 4.78839 18.109 4.22932 18.1067H4C3.46956 18.1067 2.96086 17.896 2.58578 17.521C2.21071 17.1459 2 16.6372 2 16.1067C2 15.5763 2.21071 15.0676 2.58578 14.6925C2.96086 14.3175 3.46956 14.1067 4 14.1067L4.12 14.1069L4.13559 14.1066C4.71065 14.0931 5.26836 13.907 5.73623 13.5723C6.19838 13.2418 6.55174 12.7815 6.75167 12.25C6.97618 11.731 7.04225 11.157 6.94131 10.6004C6.83912 10.0368 6.57046 9.51667 6.16993 9.10721L6.08447 9.02175C5.89852 8.836 5.751 8.61542 5.65035 8.37263C5.54971 8.12983 5.4979 7.86958 5.4979 7.60675C5.4979 7.34392 5.54971 7.08366 5.65035 6.84087C5.751 6.59807 5.89905 6.37697 6.085 6.19122C6.27074 6.00527 6.49132 5.85775 6.73412 5.7571C6.97691 5.65646 7.23717 5.60465 7.5 5.60465C7.76283 5.60465 8.02308 5.65646 8.26588 5.7571C8.50867 5.85775 8.72951 6.00553 8.91526 6.19149L8.99523 6.27152L9.00049 6.27666C9.40995 6.67719 9.93001 6.94587 10.4936 7.04806C11.0085 7.14143 11.5382 7.0919 12.0255 6.90626C12.1071 6.90313 12.1875 6.88505 12.2626 6.85284C12.7765 6.63261 13.2147 6.26692 13.5234 5.8008C13.8321 5.33468 13.9978 4.78847 14 4.22941L14 4.22675V4.00008C14 3.46965 14.2107 2.96094 14.5858 2.58587ZM26.4766 20.2693L25.8667 20.0001L26.4794 20.2627C26.5972 19.9878 26.7928 19.7534 27.0421 19.5883C27.2911 19.4234 27.5829 19.3348 27.8815 19.3334H28C28.8841 19.3334 29.7319 18.9822 30.357 18.3571C30.9821 17.732 31.3333 16.8841 31.3333 16.0001C31.3333 15.116 30.9821 14.2682 30.357 13.6431C29.7319 13.0179 28.8841 12.6667 28 12.6667H27.7748C27.4762 12.6653 27.1845 12.5767 26.9355 12.4118C26.7201 12.2692 26.5447 12.0748 26.4251 11.8473C26.4197 11.7704 26.4011 11.6949 26.3699 11.6242C26.2462 11.3439 26.2093 11.033 26.264 10.7316C26.3184 10.4312 26.4613 10.154 26.6742 9.93536L26.7511 9.85841C27.0611 9.54884 27.3069 9.18121 27.4747 8.77655C27.6424 8.37189 27.7288 7.93813 27.7288 7.50008C27.7288 7.06203 27.6424 6.62827 27.4747 6.22361C27.3069 5.81895 27.0611 5.45132 26.7511 5.14175C26.4417 4.83207 26.0742 4.58639 25.6698 4.41874C25.2651 4.25099 24.8314 4.16465 24.3933 4.16465C23.9553 4.16465 23.5215 4.25099 23.1169 4.41874C22.7122 4.58649 22.3446 4.83235 22.035 5.14227L21.9581 5.21918C21.7394 5.43212 21.4622 5.57499 21.1618 5.62945C20.8604 5.68411 20.5495 5.64717 20.2692 5.52347L20.2626 5.52066C19.9878 5.40286 19.7534 5.20726 19.5882 4.95794C19.4233 4.70894 19.3347 4.41721 19.3333 4.11859V4.00008C19.3333 3.11603 18.9821 2.26818 18.357 1.64306C17.7319 1.01794 16.8841 0.666748 16 0.666748C15.1159 0.666748 14.2681 1.01794 13.643 1.64306C13.0179 2.26818 12.6667 3.11603 12.6667 4.00008V4.22525C12.6652 4.52388 12.5767 4.81561 12.4118 5.0646C12.2691 5.28002 12.0747 5.45534 11.8472 5.57501C11.7703 5.58035 11.6948 5.59897 11.6242 5.63017C11.3439 5.75388 11.0329 5.79078 10.7315 5.73612C10.4311 5.68166 10.1539 5.53879 9.93523 5.32584L9.85833 5.24894C9.54875 4.93902 9.18113 4.69315 8.77647 4.52541C8.37181 4.35766 7.93805 4.27132 7.5 4.27132C7.06195 4.27132 6.62819 4.35766 6.22353 4.52541C5.81898 4.69311 5.45145 4.93888 5.14193 5.24868C4.83213 5.5582 4.58636 5.92573 4.41866 6.33028C4.25091 6.73494 4.16457 7.1687 4.16457 7.60675C4.16457 8.0448 4.25091 8.47856 4.41866 8.88322C4.5864 9.28788 4.83227 9.6555 5.14219 9.96508L5.21909 10.042C5.43204 10.2606 5.5749 10.5379 5.62937 10.8382C5.68403 11.1397 5.64713 11.4506 5.52342 11.7309C5.51775 11.7438 5.51249 11.7568 5.50764 11.77C5.40144 12.0587 5.21082 12.3089 4.96057 12.4878C4.71223 12.6655 4.41657 12.7649 4.11148 12.7734H4C3.11594 12.7734 2.2681 13.1246 1.64297 13.7497C1.01785 14.3748 0.666664 15.2227 0.666664 16.1067C0.666664 16.9908 1.01785 17.8386 1.64297 18.4638C2.2681 19.0889 3.11594 19.4401 4 19.4401H4.22517C4.5238 19.4415 4.81552 19.5301 5.06452 19.695C5.31384 19.8601 5.5094 20.0945 5.6272 20.3694L5.63009 20.3759C5.75379 20.6562 5.79069 20.9671 5.73603 21.2686C5.68157 21.569 5.53871 21.8462 5.32577 22.0648L5.24886 22.1417C4.93893 22.4513 4.69307 22.819 4.52532 23.2236C4.35758 23.6283 4.27123 24.062 4.27123 24.5001C4.27123 24.9381 4.35758 25.3719 4.52532 25.7766C4.69298 26.181 4.93866 26.5484 5.24833 26.8579C5.55791 27.1678 5.92554 27.4137 6.3302 27.5814C6.73486 27.7492 7.16861 27.8355 7.60666 27.8355C8.04472 27.8355 8.47847 27.7492 8.88313 27.5814C9.28779 27.4137 9.65542 27.1678 9.965 26.8579L10.0419 26.7809C10.2606 26.568 10.5378 26.4252 10.8382 26.3707C11.1396 26.3161 11.4505 26.353 11.7308 26.4767C11.7383 26.48 11.7459 26.4831 11.7535 26.4862C11.759 26.4883 11.7644 26.4904 11.7699 26.4924C12.0586 26.5986 12.3088 26.7893 12.4878 27.0395C12.6654 27.2878 12.7648 27.5835 12.7733 27.8886V28.0001C12.7733 28.8841 13.1245 29.732 13.7496 30.3571C14.3748 30.9822 15.2226 31.3334 16.1067 31.3334C16.9907 31.3334 17.8386 30.9822 18.4637 30.3571C19.0888 29.732 19.44 28.8841 19.44 28.0001V27.7749C19.4414 27.4763 19.53 27.1846 19.6949 26.9356C19.86 26.6862 20.0944 26.4907 20.3693 26.3729L20.3758 26.37C20.6561 26.2463 20.9671 26.2094 21.2685 26.264C21.5689 26.3185 21.8461 26.4614 22.0647 26.6743L22.1417 26.7512C22.4512 27.0611 22.8189 27.307 23.2235 27.4748C23.6282 27.6425 24.0619 27.7288 24.5 27.7288C24.9381 27.7288 25.3718 27.6425 25.7765 27.4748C26.181 27.3071 26.5485 27.0613 26.8581 26.7515C27.1679 26.442 27.4136 26.0744 27.5813 25.6699C27.7491 25.2652 27.8354 24.8315 27.8354 24.3934C27.8354 23.9554 27.7491 23.5216 27.5813 23.1169C27.4136 22.7123 27.1677 22.3447 26.8578 22.0351L26.7809 21.9582C26.568 21.7395 26.4251 21.4623 26.3706 21.1619C26.316 20.8605 26.3529 20.5495 26.4766 20.2693ZM12.6667 16.0001C12.6667 14.1591 14.159 12.6667 16 12.6667C17.8409 12.6667 19.3333 14.1591 19.3333 16.0001C19.3333 17.841 17.8409 19.3334 16 19.3334C14.159 19.3334 12.6667 17.841 12.6667 16.0001ZM16 11.3334C13.4227 11.3334 11.3333 13.4228 11.3333 16.0001C11.3333 18.5774 13.4227 20.6667 16 20.6667C18.5773 20.6667 20.6667 18.5774 20.6667 16.0001C20.6667 13.4228 18.5773 11.3334 16 11.3334Z" fill="white"/>
</svg>
