<svg width="24" height="24" viewBox="0 0 24 24" fill="none" xmlns="http://www.w3.org/2000/svg">
<path fill-rule="evenodd" clip-rule="evenodd" d="M16.6464 0.646447C16.8417 0.451184 17.1583 0.451184 17.3536 0.646447L21.3536 4.64645C21.5488 4.84171 21.5488 5.15829 21.3536 5.35355L17.3536 9.35355C17.1583 9.54882 16.8417 9.54882 16.6464 9.35355C16.4512 9.15829 16.4512 8.84171 16.6464 8.64645L20.2929 5L16.6464 1.35355C16.4512 1.15829 16.4512 0.841709 16.6464 0.646447Z" fill="none"/>
<path fill-rule="evenodd" clip-rule="evenodd" d="M7 5.5C6.07174 5.5 5.1815 5.86875 4.52513 6.52513C3.86875 7.1815 3.5 8.07174 3.5 9V11C3.5 11.2761 3.27614 11.5 3 11.5C2.72386 11.5 2.5 11.2761 2.5 11V9C2.5 7.80653 2.97411 6.66193 3.81802 5.81802C4.66193 4.97411 5.80653 4.5 7 4.5H21C21.2761 4.5 21.5 4.72386 21.5 5C21.5 5.27614 21.2761 5.5 21 5.5H7Z" fill="none"/>
<path fill-rule="evenodd" clip-rule="evenodd" d="M7.35355 14.6464C7.54882 14.8417 7.54882 15.1583 7.35355 15.3536L3.70711 19L7.35355 22.6464C7.54882 22.8417 7.54882 23.1583 7.35355 23.3536C7.15829 23.5488 6.84171 23.5488 6.64645 23.3536L2.64645 19.3536C2.45118 19.1583 2.45118 18.8417 2.64645 18.6464L6.64645 14.6464C6.84171 14.4512 7.15829 14.4512 7.35355 14.6464Z" fill="none"/>
<path fill-rule="evenodd" clip-rule="evenodd" d="M21 12.5C21.2761 12.5 21.5 12.7239 21.5 13V15C21.5 16.1935 21.0259 17.3381 20.182 18.182C19.3381 19.0259 18.1935 19.5 17 19.5H3C2.72386 19.5 2.5 19.2761 2.5 19C2.5 18.7239 2.72386 18.5 3 18.5H17C17.9283 18.5 18.8185 18.1313 19.4749 17.4749C20.1313 16.8185 20.5 15.9283 20.5 15V13C20.5 12.7239 20.7239 12.5 21 12.5Z" fill="none"/>
</svg>
