<svg width="171" height="44" viewBox="0 0 171 44" fill="none" xmlns="http://www.w3.org/2000/svg">
<path d="M19.176 43.192L5.48 5.04801C5.18134 4.19468 4.776 3.53334 4.264 3.06401C3.79467 2.55201 3.13334 2.16801 2.28 1.91201L0.744003 1.40001V0.76001H19.176V1.40001L17.192 1.97601C16.2107 2.23201 15.656 2.68001 15.528 3.32001C15.4427 3.96001 15.5493 4.74934 15.848 5.68801L25.32 33.784L34.856 5.62401C35.1973 4.64267 35.3467 3.83201 35.304 3.19201C35.304 2.55201 34.8133 2.10401 33.832 1.84801L32.168 1.40001V0.76001H41.128V1.40001L39.4 1.91201C38.5893 2.12534 38.0133 2.50934 37.672 3.06401C37.3307 3.57601 37.0107 4.25868 36.712 5.11201L23.912 43.192H19.176Z" fill="white"/>
<path d="M53.1595 43.96C49.9168 43.96 47.1008 43.2987 44.7115 41.976C42.3222 40.6107 40.4662 38.6907 39.1435 36.216C37.8635 33.7413 37.2235 30.84 37.2235 27.512C37.2235 24.184 37.9062 21.304 39.2715 18.872C40.6795 16.44 42.5782 14.5627 44.9675 13.24C47.3995 11.9173 50.1302 11.256 53.1595 11.256C56.1888 11.256 58.8982 11.9173 61.2875 13.24C63.6768 14.52 65.5542 16.376 66.9195 18.808C68.3275 21.24 69.0315 24.1413 69.0315 27.512C69.0315 30.8827 68.3702 33.8053 67.0475 36.28C65.7675 38.712 63.9328 40.6107 61.5435 41.976C59.1968 43.2987 56.4022 43.96 53.1595 43.96ZM53.1595 42.68C54.6528 42.68 55.8475 42.2533 56.7435 41.4C57.6395 40.5467 58.2795 39.032 58.6635 36.856C59.0902 34.68 59.3035 31.608 59.3035 27.64C59.3035 23.6293 59.0902 20.536 58.6635 18.36C58.2795 16.184 57.6395 14.6693 56.7435 13.816C55.8475 12.9627 54.6528 12.536 53.1595 12.536C51.6662 12.536 50.4502 12.9627 49.5115 13.816C48.6155 14.6693 47.9542 16.184 47.5275 18.36C47.1435 20.536 46.9515 23.6293 46.9515 27.64C46.9515 31.608 47.1435 34.68 47.5275 36.856C47.9542 39.032 48.6155 40.5467 49.5115 41.4C50.4502 42.2533 51.6662 42.68 53.1595 42.68Z" fill="white"/>
<path d="M88.0895 43.96C85.1882 43.96 82.5428 43.3413 80.1535 42.104C77.8068 40.824 75.9295 38.9893 74.5215 36.6C73.1562 34.168 72.4735 31.2027 72.4735 27.704C72.4735 24.248 73.2202 21.304 74.7135 18.872C76.2495 16.3973 78.2762 14.52 80.7935 13.24C83.3535 11.9173 86.1482 11.256 89.1775 11.256C91.6522 11.256 93.7428 11.6613 95.4495 12.472C97.1562 13.2827 98.4575 14.3493 99.3535 15.672C100.249 16.952 100.698 18.296 100.698 19.704C100.698 20.8987 100.335 21.8373 99.6095 22.52C98.8842 23.16 97.9455 23.48 96.7935 23.48C95.5562 23.48 94.5535 23.032 93.7855 22.136C93.0175 21.24 92.5695 20.0667 92.4415 18.616C92.3988 17.6773 92.4202 16.888 92.5055 16.248C92.5908 15.5653 92.5908 14.8827 92.5055 14.2C92.3348 13.4747 92.0575 13.0053 91.6735 12.792C91.3322 12.536 90.8415 12.408 90.2015 12.408C87.5988 12.408 85.5722 13.5387 84.1215 15.8C82.7135 18.0613 82.0095 21.6667 82.0095 26.616C82.0095 30.9253 82.7988 34.232 84.3775 36.536C85.9988 38.7973 88.4735 39.928 91.8015 39.928C93.8068 39.928 95.4282 39.5653 96.6655 38.84C97.9028 38.1147 99.0975 37.0267 100.25 35.576L100.89 36.088C99.8228 38.6053 98.1802 40.5467 95.9615 41.912C93.7428 43.2773 91.1188 43.96 88.0895 43.96Z" fill="white"/>
<path d="M112.812 43.96C110.337 43.96 108.246 43.256 106.539 41.848C104.875 40.44 104.044 38.4133 104.044 35.768C104.044 33.7627 105.068 31.928 107.116 30.264C109.163 28.5573 112.385 27.2773 116.78 26.424C117.462 26.296 118.23 26.168 119.083 26.04C119.937 25.8693 120.833 25.6987 121.771 25.528V20.472C121.771 17.5707 121.409 15.544 120.684 14.392C120.001 13.1973 118.913 12.6 117.42 12.6C116.396 12.6 115.585 12.9413 114.988 13.624C114.39 14.264 114.006 15.3947 113.836 17.016L113.708 17.72C113.622 19.5547 113.174 20.8987 112.364 21.752C111.553 22.6053 110.55 23.032 109.355 23.032C108.246 23.032 107.329 22.6907 106.604 22.008C105.878 21.3253 105.516 20.408 105.516 19.256C105.516 17.5067 106.113 16.0347 107.308 14.84C108.545 13.6453 110.166 12.7493 112.172 12.152C114.177 11.5547 116.353 11.256 118.7 11.256C122.497 11.256 125.419 12.1947 127.467 14.072C129.558 15.9067 130.604 18.9147 130.604 23.096V37.24C130.604 39.16 131.499 40.12 133.292 40.12H134.699L135.275 40.632C134.465 41.656 133.569 42.4453 132.587 43C131.649 43.5547 130.305 43.832 128.556 43.832C126.678 43.832 125.185 43.4053 124.076 42.552C123.009 41.656 122.305 40.4827 121.964 39.032C120.684 40.3973 119.361 41.5707 117.995 42.552C116.673 43.4907 114.945 43.96 112.812 43.96ZM116.715 40.056C117.569 40.056 118.358 39.864 119.083 39.48C119.851 39.0533 120.747 38.4133 121.771 37.56V26.808C121.345 26.8933 120.918 26.9787 120.492 27.064C120.065 27.1493 119.574 27.2347 119.02 27.32C117.057 27.832 115.478 28.7067 114.284 29.944C113.132 31.1387 112.555 32.76 112.555 34.808C112.555 36.5573 112.961 37.88 113.771 38.776C114.582 39.6293 115.563 40.056 116.715 40.056Z" fill="white"/>
<path d="M136.467 43V42.36L137.363 42.104C138.857 41.6773 139.604 40.632 139.604 38.968V18.936C139.604 17.9973 139.454 17.3147 139.156 16.888C138.857 16.4187 138.281 16.0987 137.428 15.928L136.467 15.672V15.032L147.411 11.32L148.051 11.96L148.564 15.8C150.057 14.4773 151.742 13.3893 153.62 12.536C155.497 11.6827 157.353 11.256 159.188 11.256C162.003 11.256 164.158 12.024 165.652 13.56C167.188 15.096 167.956 17.4427 167.956 20.6V39.032C167.956 40.696 168.766 41.7413 170.387 42.168L170.964 42.36V43H155.859V42.36L156.691 42.104C158.185 41.6347 158.932 40.5893 158.932 38.968V18.552C158.932 15.8213 157.566 14.456 154.835 14.456C152.958 14.456 150.91 15.3947 148.691 17.272V39.032C148.691 40.696 149.438 41.7413 150.932 42.168L151.508 42.36V43H136.467Z" fill="white"/>
</svg>
