<svg width="171" height="80" viewBox="0 0 171 80" fill="none" xmlns="http://www.w3.org/2000/svg">
<path d="M19.176 79.192L5.48 41.048C5.18134 40.1947 4.776 39.5333 4.264 39.064C3.79467 38.552 3.13334 38.168 2.28 37.912L0.744003 37.4V36.76H19.176V37.4L17.192 37.976C16.2107 38.232 15.656 38.68 15.528 39.32C15.4427 39.96 15.5493 40.7493 15.848 41.688L25.32 69.784L34.856 41.624C35.1973 40.6427 35.3467 39.832 35.304 39.192C35.304 38.552 34.8133 38.104 33.832 37.848L32.168 37.4V36.76H41.128V37.4L39.4 37.912C38.5893 38.1253 38.0133 38.5093 37.672 39.064C37.3307 39.576 37.0107 40.2587 36.712 41.112L23.912 79.192H19.176Z" fill="white"/>
<path d="M53.1595 79.96C49.9168 79.96 47.1008 79.2987 44.7115 77.976C42.3222 76.6107 40.4662 74.6907 39.1435 72.216C37.8635 69.7413 37.2235 66.84 37.2235 63.512C37.2235 60.184 37.9062 57.304 39.2715 54.872C40.6795 52.44 42.5782 50.5627 44.9675 49.24C47.3995 47.9173 50.1302 47.256 53.1595 47.256C56.1888 47.256 58.8982 47.9173 61.2875 49.24C63.6768 50.52 65.5542 52.376 66.9195 54.808C68.3275 57.24 69.0315 60.1413 69.0315 63.512C69.0315 66.8827 68.3702 69.8053 67.0475 72.28C65.7675 74.712 63.9328 76.6107 61.5435 77.976C59.1968 79.2987 56.4022 79.96 53.1595 79.96ZM53.1595 78.68C54.6528 78.68 55.8475 78.2533 56.7435 77.4C57.6395 76.5467 58.2795 75.032 58.6635 72.856C59.0902 70.68 59.3035 67.608 59.3035 63.64C59.3035 59.6293 59.0902 56.536 58.6635 54.36C58.2795 52.184 57.6395 50.6693 56.7435 49.816C55.8475 48.9627 54.6528 48.536 53.1595 48.536C51.6662 48.536 50.4502 48.9627 49.5115 49.816C48.6155 50.6693 47.9542 52.184 47.5275 54.36C47.1435 56.536 46.9515 59.6293 46.9515 63.64C46.9515 67.608 47.1435 70.68 47.5275 72.856C47.9542 75.032 48.6155 76.5467 49.5115 77.4C50.4502 78.2533 51.6662 78.68 53.1595 78.68Z" fill="white"/>
<path d="M88.0895 79.96C85.1882 79.96 82.5428 79.3413 80.1535 78.104C77.8068 76.824 75.9295 74.9893 74.5215 72.6C73.1562 70.168 72.4735 67.2027 72.4735 63.704C72.4735 60.248 73.2202 57.304 74.7135 54.872C76.2495 52.3973 78.2762 50.52 80.7935 49.24C83.3535 47.9173 86.1482 47.256 89.1775 47.256C91.6522 47.256 93.7428 47.6613 95.4495 48.472C97.1562 49.2827 98.4575 50.3493 99.3535 51.672C100.25 52.952 100.698 54.296 100.698 55.704C100.698 56.8987 100.335 57.8373 99.6095 58.52C98.8842 59.16 97.9455 59.48 96.7935 59.48C95.5562 59.48 94.5535 59.032 93.7855 58.136C93.0175 57.24 92.5695 56.0667 92.4415 54.616C92.3988 53.6773 92.4202 52.888 92.5055 52.248C92.5908 51.5653 92.5908 50.8827 92.5055 50.2C92.3348 49.4747 92.0575 49.0053 91.6735 48.792C91.3322 48.536 90.8415 48.408 90.2015 48.408C87.5988 48.408 85.5722 49.5387 84.1215 51.8C82.7135 54.0613 82.0095 57.6667 82.0095 62.616C82.0095 66.9253 82.7988 70.232 84.3775 72.536C85.9988 74.7973 88.4735 75.928 91.8015 75.928C93.8068 75.928 95.4282 75.5653 96.6655 74.84C97.9028 74.1147 99.0975 73.0267 100.25 71.576L100.89 72.088C99.8228 74.6053 98.1802 76.5467 95.9615 77.912C93.7428 79.2773 91.1188 79.96 88.0895 79.96Z" fill="white"/>
<path d="M112.812 79.96C110.337 79.96 108.246 79.256 106.539 77.848C104.875 76.44 104.044 74.4133 104.044 71.768C104.044 69.7627 105.068 67.928 107.116 66.264C109.164 64.5573 112.385 63.2773 116.78 62.424C117.462 62.296 118.23 62.168 119.083 62.04C119.937 61.8693 120.833 61.6987 121.771 61.528V56.472C121.771 53.5707 121.409 51.544 120.684 50.392C120.001 49.1973 118.913 48.6 117.42 48.6C116.396 48.6 115.585 48.9413 114.988 49.624C114.39 50.264 114.006 51.3947 113.836 53.016L113.708 53.72C113.622 55.5547 113.174 56.8987 112.364 57.752C111.553 58.6053 110.55 59.032 109.355 59.032C108.246 59.032 107.329 58.6907 106.604 58.008C105.878 57.3253 105.516 56.408 105.516 55.256C105.516 53.5067 106.113 52.0347 107.308 50.84C108.545 49.6453 110.166 48.7493 112.172 48.152C114.177 47.5547 116.353 47.256 118.7 47.256C122.497 47.256 125.419 48.1947 127.467 50.072C129.558 51.9067 130.604 54.9147 130.604 59.096V73.24C130.604 75.16 131.5 76.12 133.292 76.12H134.699L135.275 76.632C134.465 77.656 133.569 78.4453 132.587 79C131.649 79.5547 130.305 79.832 128.556 79.832C126.678 79.832 125.185 79.4053 124.076 78.552C123.009 77.656 122.305 76.4827 121.964 75.032C120.684 76.3973 119.361 77.5707 117.995 78.552C116.673 79.4907 114.945 79.96 112.812 79.96ZM116.715 76.056C117.569 76.056 118.358 75.864 119.083 75.48C119.851 75.0533 120.747 74.4133 121.771 73.56V62.808C121.345 62.8933 120.918 62.9787 120.492 63.064C120.065 63.1493 119.574 63.2347 119.02 63.32C117.057 63.832 115.478 64.7067 114.284 65.944C113.132 67.1387 112.555 68.76 112.555 70.808C112.555 72.5573 112.961 73.88 113.771 74.776C114.582 75.6293 115.563 76.056 116.715 76.056Z" fill="white"/>
<path d="M136.467 79V78.36L137.363 78.104C138.857 77.6773 139.604 76.632 139.604 74.968V54.936C139.604 53.9973 139.454 53.3147 139.156 52.888C138.857 52.4187 138.281 52.0987 137.428 51.928L136.467 51.672V51.032L147.411 47.32L148.051 47.96L148.564 51.8C150.057 50.4773 151.742 49.3893 153.62 48.536C155.497 47.6827 157.353 47.256 159.188 47.256C162.003 47.256 164.158 48.024 165.652 49.56C167.188 51.096 167.956 53.4427 167.956 56.6V75.032C167.956 76.696 168.766 77.7413 170.387 78.168L170.964 78.36V79H155.859V78.36L156.691 78.104C158.185 77.6347 158.932 76.5893 158.932 74.968V54.552C158.932 51.8213 157.566 50.456 154.835 50.456C152.958 50.456 150.91 51.3947 148.691 53.272V75.032C148.691 76.696 149.438 77.7413 150.932 78.168L151.508 78.36V79H136.467Z" fill="white"/>
<path d="M63 34C63 33.1163 63.7196 32.4162 64.5988 32.3275C67.6741 32.0172 69.0172 30.6741 69.3275 27.5988C69.4162 26.7196 70.1163 26 71 26C71.8837 26 72.5838 26.7196 72.6725 27.5988C72.9828 30.6741 74.3259 32.0172 77.4012 32.3275C78.2804 32.4162 79 33.1163 79 34C79 34.8837 78.2804 35.5838 77.4012 35.6725C74.3259 35.9828 72.9828 37.3259 72.6725 40.4012C72.5838 41.2804 71.8837 42 71 42C70.1163 42 69.4162 41.2804 69.3275 40.4012C69.0172 37.3259 67.6741 35.9828 64.5988 35.6725C63.7196 35.5838 63 34.8837 63 34Z" fill="#124BDC"/>
<path d="M71 17C71 15.1222 72 13.4459 74.3974 13.4459C83 13.4459 84.5 12 84.4459 3.39736C84.4459 1 86.1222 0 88 0C89.8778 0 91.5541 1 91.5541 3.39736C91.5541 12 93 13.4459 101.603 13.4459C104 13.4459 105 15 105 17C105 19 104 20.5541 101.603 20.5541C93 20.5541 91.5541 22 91.5541 30.6026C91.5541 33 89.8778 34 88 34C86.1222 34 84.4459 33 84.4459 30.6026C84.4459 22 83 20.5541 74.3974 20.5541C72 20.5541 71 18.8778 71 17Z" fill="white"/>
</svg>
