<svg width="42" height="42" viewBox="0 0 42 42" fill="none" xmlns="http://www.w3.org/2000/svg">
<path d="M0 34C0 33.1163 0.719567 32.4162 1.59876 32.3275C4.67409 32.0172 6.01716 30.6741 6.32749 27.5988C6.41621 26.7196 7.11634 26 8 26C8.88366 26 9.5838 26.7196 9.67251 27.5988C9.98284 30.6741 11.3259 32.0172 14.4012 32.3275C15.2804 32.4162 16 33.1163 16 34C16 34.8837 15.2804 35.5838 14.4012 35.6725C11.3259 35.9828 9.98284 37.3259 9.67251 40.4012C9.58379 41.2804 8.88366 42 8 42C7.11634 42 6.41621 41.2804 6.32749 40.4012C6.01716 37.3259 4.67409 35.9828 1.59876 35.6725C0.719566 35.5838 0 34.8837 0 34Z" fill="#124BDC"/>
<path d="M8 17C8 15.1222 9 13.4459 11.3974 13.4459C20 13.4459 21.5 12 21.4459 3.39736C21.4459 1 23.1222 0 25 0C26.8778 0 28.5541 1 28.5541 3.39736C28.5541 12 30 13.4459 38.6026 13.4459C41 13.4459 42 15 42 17C42 19 41 20.5541 38.6026 20.5541C30 20.5541 28.5541 22 28.5541 30.6026C28.5541 33 26.8778 34 25 34C23.1222 34 21.4459 33 21.4459 30.6026C21.4459 22 20 20.5541 11.3974 20.5541C9 20.5541 8 18.8778 8 17Z" fill="white"/>
</svg>
